<svg width="80" height="90" viewBox="0 0 80 90" fill="none" xmlns="http://www.w3.org/2000/svg">
<path d="M64.1422 48.6725L63.5768 61.538C63.1137 67.9888 61.2105 74.2705 57.9947 79.9614L68.5501 86.4802C69.0891 86.813 69.7026 87.0201 70.3409 87.0849C70.9793 87.1497 71.6246 87.0703 72.2249 86.8531C72.8252 86.636 73.3635 86.2871 73.7966 85.8347C74.2296 85.3824 74.5451 84.8391 74.7176 84.2489L79.6457 67.3739C80.2699 64.9326 80.0656 62.3652 79.0623 60.0419C78.059 57.7187 76.3084 55.7596 74.0632 54.4475L64.1422 48.6725ZM16.9148 61.4504L15.7826 48.8283L6.42423 54.2885C3.95222 55.428 1.9957 57.3829 0.916052 59.7921C-0.163591 62.2013 -0.293413 64.9021 0.550563 67.3955L5.47016 84.2489C5.64241 84.8393 5.95775 85.3828 6.3907 85.8353C6.82366 86.2879 7.36208 86.6369 7.96245 86.8541C8.56282 87.0713 9.20831 87.1506 9.84674 87.0856C10.4852 87.0207 11.0986 86.8132 11.6376 86.4801L22.4377 79.8105C19.3863 74.0829 17.5116 67.8508 16.9148 61.4504ZM44.436 35.4033C45.2946 34.5837 45.8794 33.5394 46.1163 32.4025C46.3532 31.2656 46.2316 30.0872 45.7669 29.0163C45.3022 27.9453 44.5152 27.03 43.5055 26.386C42.4958 25.742 41.3087 25.3983 40.0944 25.3983C38.88 25.3983 37.6929 25.742 36.6832 26.386C35.6735 27.03 34.8866 27.9453 34.4219 29.0163C33.9571 30.0872 33.8356 31.2656 34.0725 32.4025C34.3094 33.5394 34.8941 34.5837 35.7528 35.4033C36.9046 36.5019 38.4662 37.119 40.0944 37.119C41.7226 37.119 43.2842 36.5019 44.436 35.4033Z" fill="#707070"/>
<path d="M41.8689 0.5322C41.2425 0.183651 40.5305 0 39.8055 0C39.0805 0 38.3685 0.183652 37.7421 0.532202C30.2613 4.72649 24.1742 10.8529 20.1821 18.2055C16.1899 25.5581 14.4553 33.8378 15.1779 42.0904L16.9148 61.4504C17.8075 71.1457 21.6137 80.3888 27.8762 88.0694C28.2586 88.5437 28.7501 88.9278 29.3127 89.1921C29.8753 89.4564 30.4939 89.5939 31.121 89.5938H49.0667C49.6042 89.594 50.1365 89.4931 50.6331 89.2968C51.1297 89.1006 51.581 88.8128 51.9611 88.45C52.0444 88.3704 52.1236 88.2868 52.2013 88.1991C58.8653 80.6921 62.85 71.3531 63.5768 61.538L64.4302 42.1123C65.1799 33.8537 63.4575 25.5616 59.4635 18.2007C55.4695 10.8398 49.368 4.71273 41.8689 0.5322ZM44.436 35.4033C43.5773 36.223 42.483 36.7811 41.292 37.0073C40.101 37.2334 38.8665 37.1173 37.7445 36.6738C36.6226 36.2302 35.6637 35.479 34.989 34.5152C34.3144 33.5514 33.9543 32.4182 33.9543 31.2591C33.9543 30.0999 34.3144 28.9668 34.989 28.003C35.6637 27.0392 36.6226 26.288 37.7445 25.8444C38.8665 25.4008 40.101 25.2847 41.292 25.5109C42.483 25.737 43.5771 26.2952 44.4357 27.1149C45.5867 28.2142 46.2332 29.7049 46.2332 31.2591C46.2332 32.8133 45.5869 34.3039 44.436 35.4033Z" fill="#E9E9E9"/>
</svg>
