<svg width="32" height="32" viewBox="0 0 32 32" fill="none" xmlns="http://www.w3.org/2000/svg">
<path d="M28 15.9999C27.6464 15.9999 27.3072 16.1404 27.0572 16.3904C26.8072 16.6406 26.6667 16.9796 26.6667 17.3332V25.3332C26.6667 25.687 26.5262 26.026 26.2762 26.276C26.0262 26.5262 25.687 26.6666 25.3334 26.6666H6.66669C6.31306 26.6666 5.97393 26.5262 5.72387 26.276C5.47383 26.026 5.33335 25.687 5.33335 25.3332V6.66661C5.33335 6.31298 5.47383 5.97385 5.72387 5.72379C5.97393 5.47375 6.31306 5.33327 6.66669 5.33327H14.6667C15.0203 5.33327 15.3595 5.19279 15.6095 4.94275C15.8595 4.6927 16 4.35357 16 3.99994C16 3.64631 15.8595 3.30718 15.6095 3.05713C15.3595 2.80709 15.0203 2.66661 14.6667 2.66661H6.66669C5.60582 2.66661 4.58841 3.08803 3.83826 3.83818C3.08811 4.58833 2.66669 5.60574 2.66669 6.66661V25.3332C2.66669 26.3942 3.08811 27.4116 3.83826 28.1618C4.58841 28.9119 5.60582 29.3332 6.66669 29.3332H25.3334C26.3942 29.3332 27.4116 28.9119 28.1618 28.1618C28.9119 27.4116 29.3334 26.3942 29.3334 25.3332V17.3332C29.3334 16.9796 29.1928 16.6406 28.9428 16.3904C28.6928 16.1404 28.3536 15.9999 28 15.9999ZM8.00002 17.0132V22.6666C8.00002 23.0203 8.1405 23.3594 8.39054 23.6094C8.64059 23.8595 8.97973 23.9999 9.33335 23.9999H14.9867C15.1622 24.001 15.3362 23.9674 15.4986 23.901C15.661 23.8346 15.8088 23.7368 15.9334 23.6132L25.16 14.3732L28.9467 10.6666C29.0716 10.5427 29.1708 10.3952 29.2386 10.2327C29.3063 10.0702 29.3411 9.89595 29.3411 9.71994C29.3411 9.54393 29.3063 9.36965 29.2386 9.20717C29.1708 9.04469 29.0716 8.89722 28.9467 8.77327L23.2934 3.05327C23.1694 2.9283 23.0219 2.82911 22.8595 2.76142C22.697 2.69373 22.5227 2.65887 22.3467 2.65887C22.1707 2.65887 21.9964 2.69373 21.8339 2.76142C21.6715 2.82911 21.524 2.9283 21.4 3.05327L17.64 6.82661L8.38669 16.0666C8.26311 16.1912 8.16534 16.339 8.09899 16.5014C8.03263 16.6639 7.99901 16.8378 8.00002 17.0132ZM22.3467 5.87994L26.12 9.65327L24.2267 11.5466L20.4534 7.77327L22.3467 5.87994ZM10.6667 17.5599L18.5734 9.65327L22.3467 13.4266L14.44 21.3332H10.6667V17.5599Z" fill="black"/>
</svg>
