<svg width="32" height="32" viewBox="0 0 32 32" fill="none" xmlns="http://www.w3.org/2000/svg">
<path d="M3.83998 22.5067C3.09091 23.2567 2.67017 24.2733 2.67017 25.3333C2.67017 26.3933 3.09091 27.41 3.83998 28.16C4.58998 28.9091 5.60664 29.3298 6.66665 29.3298C7.72665 29.3298 8.74331 28.9091 9.49331 28.16C10.1999 27.4017 10.5845 26.3988 10.5662 25.3626C10.548 24.3263 10.1282 23.3376 9.3953 22.6047C8.66243 21.8718 7.67371 21.452 6.63743 21.4337C5.60116 21.4155 4.59825 21.8001 3.83998 22.5067V22.5067ZM7.61331 26.28C7.36224 26.5311 7.02171 26.6721 6.66665 26.6721C6.31158 26.6721 5.97105 26.5311 5.71998 26.28C5.46891 26.0289 5.32786 25.6884 5.32786 25.3333C5.32786 24.9783 5.46891 24.6377 5.71998 24.3867C5.84393 24.2617 5.9914 24.1625 6.15388 24.0948C6.31636 24.0271 6.49063 23.9923 6.66665 23.9923C6.84266 23.9923 7.01694 24.0271 7.17942 24.0948C7.34189 24.1625 7.48936 24.2617 7.61331 24.3867C7.73828 24.5106 7.83748 24.6581 7.90517 24.8206C7.97286 24.9831 8.00771 25.1573 8.00771 25.3333C8.00771 25.5094 7.97286 25.6836 7.90517 25.8461C7.83748 26.0086 7.73828 26.1561 7.61331 26.28ZM6.66665 16C6.31302 16 5.97389 16.1405 5.72384 16.3905C5.47379 16.6406 5.33331 16.9797 5.33331 17.3333C5.33331 17.687 5.47379 18.0261 5.72384 18.2762C5.97389 18.5262 6.31302 18.6667 6.66665 18.6667C8.43476 18.6667 10.1304 19.3691 11.3807 20.6193C12.6309 21.8695 13.3333 23.5652 13.3333 25.3333C13.3333 25.687 13.4738 26.0261 13.7238 26.2762C13.9739 26.5262 14.313 26.6667 14.6666 26.6667C15.0203 26.6667 15.3594 26.5262 15.6095 26.2762C15.8595 26.0261 16 25.687 16 25.3333C16 22.858 15.0166 20.484 13.2663 18.7337C11.516 16.9833 9.142 16 6.66665 16ZM6.66665 10.6667C6.31302 10.6667 5.97389 10.8072 5.72384 11.0572C5.47379 11.3072 5.33331 11.6464 5.33331 12C5.33331 12.3536 5.47379 12.6928 5.72384 12.9428C5.97389 13.1929 6.31302 13.3333 6.66665 13.3333C9.84924 13.3333 12.9015 14.5976 15.1519 16.8481C17.4024 19.0985 18.6666 22.1507 18.6666 25.3333C18.6666 25.687 18.8071 26.0261 19.0572 26.2762C19.3072 26.5262 19.6464 26.6667 20 26.6667C20.3536 26.6667 20.6927 26.5262 20.9428 26.2762C21.1928 26.0261 21.3333 25.687 21.3333 25.3333C21.323 21.4453 19.7804 17.7181 17.04 14.96C14.2819 12.2196 10.5547 10.677 6.66665 10.6667V10.6667ZM20.8133 11.1867C17.0517 7.45006 11.9687 5.34692 6.66665 5.33334C6.31302 5.33334 5.97389 5.47382 5.72384 5.72387C5.47379 5.97392 5.33331 6.31305 5.33331 6.66668C5.33331 7.0203 5.47379 7.35944 5.72384 7.60949C5.97389 7.85953 6.31302 8.00001 6.66665 8.00001C11.2637 8.00001 15.6725 9.82619 18.9232 13.0768C22.1738 16.3275 24 20.7363 24 25.3333C24 25.687 24.1405 26.0261 24.3905 26.2762C24.6406 26.5262 24.9797 26.6667 25.3333 26.6667C25.6869 26.6667 26.0261 26.5262 26.2761 26.2762C26.5262 26.0261 26.6666 25.687 26.6666 25.3333C26.6531 20.0313 24.5499 14.9483 20.8133 11.1867Z" fill="black"/>
</svg>
