<svg width="162" height="232" viewBox="0 0 162 232" fill="none" xmlns="http://www.w3.org/2000/svg">
<g clip-path="url(#clip0_53_23)">
<path d="M108.684 70.1487L108.028 85.7893C107.491 93.6316 105.282 101.268 101.55 108.187L113.799 116.112C114.425 116.516 115.137 116.768 115.877 116.847C116.618 116.926 117.367 116.829 118.064 116.565C118.76 116.301 119.385 115.877 119.888 115.327C120.39 114.777 120.756 114.117 120.956 113.399L126.675 92.884C127.399 89.9162 127.162 86.7949 125.998 83.9705C124.834 81.1461 122.802 78.7645 120.197 77.1694L108.684 70.1487ZM53.8795 85.6828L52.5656 70.338L41.7058 76.976C38.8371 78.3613 36.5667 80.7379 35.3138 83.6668C34.061 86.5957 33.9103 89.879 34.8897 92.9103L40.5986 113.399C40.7985 114.117 41.1644 114.777 41.6669 115.328C42.1693 115.878 42.7941 116.302 43.4908 116.566C44.1875 116.83 44.9365 116.927 45.6774 116.848C46.4183 116.769 47.1301 116.516 47.7555 116.111L60.2885 108.003C56.7475 101.04 54.572 93.4637 53.8795 85.6828V85.6828ZM85.8162 54.0173C86.8127 53.0209 87.4912 51.7513 87.7662 50.3692C88.0411 48.9871 87.9 47.5545 87.3607 46.2526C86.8214 44.9506 85.9082 43.8379 84.7365 43.0549C83.5648 42.272 82.1873 41.8542 80.7781 41.8542C79.3689 41.8542 77.9913 42.272 76.8196 43.055C75.6479 43.8379 74.7347 44.9506 74.1954 46.2526C73.6561 47.5545 73.515 48.9871 73.79 50.3692C74.0649 51.7513 74.7435 53.0209 75.7399 54.0173C77.0765 55.3529 78.8886 56.1031 80.7781 56.1031C82.6675 56.1031 84.4797 55.3529 85.8162 54.0173V54.0173Z" fill="#646464"/>
<path d="M82.8373 11.6244C82.1104 11.2007 81.2842 10.9774 80.4428 10.9774C79.6015 10.9774 78.7752 11.2007 78.0484 11.6244C69.3674 16.7234 62.3036 24.1713 57.671 33.1099C53.0383 42.0485 51.0253 52.1141 51.8639 62.1468L53.8795 85.6828C54.9155 97.4694 59.3323 108.706 66.5995 118.044C67.0434 118.62 67.6137 119.087 68.2665 119.408C68.9194 119.73 69.6373 119.897 70.365 119.897L91.1899 119.897C91.8137 119.897 92.4314 119.774 93.0077 119.536C93.584 119.297 94.1076 118.947 94.5487 118.506C94.6454 118.41 94.7373 118.308 94.8275 118.201C102.561 109.075 107.184 97.7219 108.028 85.7897L109.018 62.1734C109.888 52.1334 107.89 42.0527 103.255 33.104C98.62 24.1554 91.5396 16.7067 82.8373 11.6244V11.6244ZM85.816 54.0173C84.8195 55.0137 83.55 55.6923 82.1679 55.9672C80.7857 56.2422 79.3531 56.1011 78.0512 55.5618C76.7493 55.0225 75.6365 54.1093 74.8536 52.9376C74.0707 51.7659 73.6528 50.3883 73.6528 48.9791C73.6528 47.5699 74.0707 46.1924 74.8536 45.0207C75.6365 43.849 76.7493 42.9358 78.0512 42.3965C79.3531 41.8572 80.7857 41.7161 82.1679 41.991C83.55 42.266 84.8195 42.9446 85.816 43.941C87.1515 45.2775 87.9018 47.0897 87.9018 48.9791C87.9018 50.8686 87.1515 52.6807 85.816 54.0173V54.0173Z" fill="#E3E3E3"/>
</g>
<path d="M112 156.269C112 172.433 85.2931 196.176 88.5 231.5C70.3276 193.148 50 172.433 50 156.269C50 140.104 63.8792 127 81 127C98.1208 127 112 140.104 112 156.269Z" fill="#A2FACA"/>
<defs>
<clipPath id="clip0_53_23">
<rect width="114" height="114" fill="white" transform="translate(0 80.6102) rotate(-45)"/>
</clipPath>
</defs>
</svg>
